<?xml version="1.0" encoding="utf-8"?>
<!-- Generator: Adobe Illustrator 22.1.0, SVG Export Plug-In . SVG Version: 6.00 Build 0)  -->
<svg version="1.1" id="Layer_1" xmlns="http://www.w3.org/2000/svg" xmlns:xlink="http://www.w3.org/1999/xlink" x="0px" y="0px"
	 viewBox="0 0 161.8 37.3" style="enable-background:new 0 0 161.8 37.3;" xml:space="preserve">
<style type="text/css">
	.st0{fill:#FFCD05;}
	.st1{fill:#A56B28;}
</style>
<g>
	<g>
		<path class="st0" d="M37.6,14.7l-11.2,8.1L30.8,36l-11.2-8.1L8.4,36l4.3-13.2L1.5,14.7h13.8l4.3-13.1l4.3,13.1H37.6z"/>
		<path class="st1" d="M31.7,37.3l-12.1-8.8L7.4,37.3L12.1,23L0,14.2h14.9L19.6,0l4.6,14.2h15L27.1,23L31.7,37.3z M3.1,15.2
			l10.2,7.4L9.3,34.7l10.3-7.4l10.2,7.4l-3.9-12.1l10.2-7.4H23.5l-3.9-12l-3.9,12H3.1z"/>
	</g>
</g>
<g>
	<g>
		<path class="st0" d="M78.5,14.7l-11.2,8.1L71.6,36l-11.2-8.1L49.2,36l4.3-13.2l-11.1-8.1h13.8l4.3-13.1l4.3,13.1H78.5z"/>
		<path class="st1" d="M72.6,37.3l-12.1-8.8l-12.2,8.8L52.9,23l-12.1-8.8h14.9L60.4,0l4.6,14.2h15L67.9,23L72.6,37.3z M43.9,15.2
			l10.2,7.4l-3.9,12.1l10.3-7.4l10.2,7.4l-3.9-12.1L77,15.2H64.3l-3.9-12l-3.9,12H43.9z"/>
	</g>
</g>
<g>
	<g>
		<path class="st0" d="M119.4,14.7l-11.2,8.1l4.3,13.2l-11.2-8.1L90.1,36l4.3-13.2l-11.1-8.1H97l4.3-13.1l4.3,13.1H119.4z"/>
		<path class="st1" d="M113.4,37.3l-12.1-8.8l-12.2,8.8L93.8,23l-12.1-8.8h14.9L101.3,0l4.6,14.2h15L108.8,23L113.4,37.3z
			 M84.8,15.2L95,22.6l-3.9,12.1l10.3-7.4l10.2,7.4l-3.9-12.1l10.2-7.4h-12.6l-3.9-12l-3.9,12H84.8z"/>
	</g>
</g>
<g>
	<g>
		<path class="st0" d="M160.2,14.7l-11.2,8.1l4.3,13.2l-11.2-8.1L131,36l4.3-13.2l-11.1-8.1h13.8l4.3-13.1l4.3,13.1H160.2z"/>
		<path class="st1" d="M154.3,37.3l-12.1-8.8L130,37.3l4.7-14.3l-12.1-8.8h14.9L142.2,0l4.6,14.2h15L149.7,23L154.3,37.3z
			 M125.7,15.2l10.2,7.4l-3.9,12.1l10.3-7.4l10.2,7.4l-3.9-12.1l10.2-7.4h-12.6l-3.9-12l-3.9,12H125.7z"/>
	</g>
</g>
</svg>
